<svg xmlns="http://www.w3.org/2000/svg" xmlns:xlink="http://www.w3.org/1999/xlink" width="2000" zoomAndPan="magnify" viewBox="0 0 1500 1499.999933" height="2000" preserveAspectRatio="xMidYMid meet" version="1.0"><defs><clipPath id="9a5a221e9c"><path d="M 60.605469 60.605469 L 1439.394531 60.605469 L 1439.394531 1439.394531 L 60.605469 1439.394531 Z M 60.605469 60.605469 " clip-rule="nonzero"/></clipPath><clipPath id="248333f862"><path d="M 750 60.605469 C 369.257812 60.605469 60.605469 369.257812 60.605469 750 C 60.605469 1130.742188 369.257812 1439.394531 750 1439.394531 C 1130.742188 1439.394531 1439.394531 1130.742188 1439.394531 750 C 1439.394531 369.257812 1130.742188 60.605469 750 60.605469 Z M 750 60.605469 " clip-rule="nonzero"/></clipPath><clipPath id="51021a6173"><path d="M 0.605469 0.605469 L 1379.394531 0.605469 L 1379.394531 1379.394531 L 0.605469 1379.394531 Z M 0.605469 0.605469 " clip-rule="nonzero"/></clipPath><clipPath id="36c68f4afc"><path d="M 690 0.605469 C 309.257812 0.605469 0.605469 309.257812 0.605469 690 C 0.605469 1070.742188 309.257812 1379.394531 690 1379.394531 C 1070.742188 1379.394531 1379.394531 1070.742188 1379.394531 690 C 1379.394531 309.257812 1070.742188 0.605469 690 0.605469 Z M 690 0.605469 " clip-rule="nonzero"/></clipPath><clipPath id="1300fce6a2"><rect x="0" width="1380" y="0" height="1380"/></clipPath><clipPath id="8d3dcf452e"><path d="M 302.589844 300.136719 L 1197.339844 300.136719 L 1197.339844 1200 L 302.589844 1200 Z M 302.589844 300.136719 " clip-rule="nonzero"/></clipPath></defs><g clip-path="url(#9a5a221e9c)"><g clip-path="url(#248333f862)"><g transform="matrix(1, 0, 0, 1, 60, 60)"><g clip-path="url(#1300fce6a2)"><g clip-path="url(#51021a6173)"><g clip-path="url(#36c68f4afc)"><path fill="#84ff00" d="M 0.605469 0.605469 L 1379.394531 0.605469 L 1379.394531 1379.394531 L 0.605469 1379.394531 Z M 0.605469 0.605469 " fill-opacity="1" fill-rule="nonzero"/></g></g></g></g></g></g><g clip-path="url(#8d3dcf452e)"><path fill="#ffffff" d="M 1066.882812 431.277344 C 982.789062 347.058594 870.953125 300.59375 751.789062 300.59375 C 506.253906 300.59375 306.414062 500.464844 306.324219 746.179688 C 306.324219 824.707031 326.816406 901.40625 365.796875 968.949219 L 302.589844 1199.859375 L 538.746094 1137.875 C 603.820312 1173.402344 677.070312 1192.078125 751.609375 1192.121094 L 751.789062 1192.121094 C 997.277344 1192.121094 1197.164062 992.207031 1197.207031 746.535156 C 1197.207031 627.457031 1150.980469 515.539062 1066.839844 431.277344 Z M 751.789062 1116.886719 L 751.65625 1116.886719 C 685.25 1116.886719 620.042969 1099.011719 563.191406 1065.261719 L 549.679688 1057.214844 L 409.535156 1093.988281 L 446.914062 957.300781 L 438.113281 943.292969 C 401.042969 884.332031 381.488281 816.167969 381.53125 746.179688 C 381.621094 541.996094 547.726562 375.828125 751.921875 375.828125 C 850.820312 375.828125 943.761719 414.421875 1013.679688 484.457031 C 1083.597656 554.445312 1122.042969 647.511719 1122 746.492188 C 1121.910156 950.71875 955.808594 1116.886719 751.742188 1116.886719 Z M 954.875 839.511719 C 943.761719 833.953125 889.046875 807.007812 878.820312 803.316406 C 868.597656 799.582031 861.21875 797.757812 853.796875 808.875 C 846.375 820.035156 825.039062 845.113281 818.550781 852.539062 C 812.058594 859.964844 805.570312 860.898438 794.414062 855.296875 C 783.300781 849.738281 747.433594 837.957031 704.894531 800.027344 C 671.824219 770.503906 649.46875 734.039062 642.976562 722.878906 C 636.488281 711.71875 642.3125 705.714844 647.867188 700.15625 C 652.84375 695.175781 658.980469 687.128906 664.578125 680.636719 C 670.136719 674.144531 672.003906 669.476562 675.691406 662.050781 C 679.425781 654.625 677.558594 648.132812 674.757812 642.53125 C 671.957031 636.972656 649.734375 582.148438 640.445312 559.871094 C 631.421875 538.171875 622.21875 541.105469 615.417969 540.75 C 608.929688 540.4375 601.507812 540.347656 594.085938 540.347656 C 586.660156 540.347656 574.617188 543.105469 564.394531 554.265625 C 554.167969 565.425781 525.457031 592.375 525.457031 647.15625 C 525.457031 701.9375 565.328125 754.894531 570.925781 762.363281 C 576.484375 769.789062 649.421875 882.242188 761.078125 930.488281 C 787.613281 941.960938 808.371094 948.808594 824.550781 953.964844 C 851.21875 962.460938 875.488281 961.257812 894.644531 958.367188 C 916.027344 955.167969 960.472656 931.421875 969.765625 905.410156 C 979.054688 879.398438 979.054688 857.121094 976.253906 852.453125 C 973.453125 847.78125 966.03125 845.027344 954.917969 839.421875 Z M 954.875 839.511719 " fill-opacity="1" fill-rule="evenodd"/></g></svg>